<svg xmlns="http://www.w3.org/2000/svg" fill-rule="evenodd" stroke-linejoin="round" stroke-miterlimit="2" clip-rule="evenodd" viewBox="0 0 32 33" id="calendar"><g transform="translate(-.153 .98)"><rect width="32" height="32" fill="none"></rect><path d="M116.847,186.98L116.847,186.572C116.847,186.02 117.295,185.572 117.847,185.572C118.399,185.572 118.847,186.02 118.847,186.572L118.847,186.98L120.847,186.98C121.643,186.98 122.406,187.296 122.969,187.859C123.531,188.422 123.847,189.185 123.847,189.98L123.847,205.98C123.847,206.776 123.531,207.539 122.969,208.102C122.406,208.664 121.643,208.98 120.847,208.98C116.004,208.98 103.69,208.98 98.847,208.98C98.052,208.98 97.289,208.664 96.726,208.102C96.163,207.539 95.847,206.776 95.847,205.98L95.847,189.98C95.847,189.185 96.163,188.422 96.726,187.859C97.289,187.296 98.052,186.98 98.847,186.98L100.847,186.98L100.847,186.572C100.847,186.02 101.295,185.572 101.847,185.572C102.399,185.572 102.847,186.02 102.847,186.572L102.847,186.98L116.847,186.98ZM121.847,192.98L97.847,192.98L97.847,205.98C97.847,206.245 97.953,206.5 98.14,206.687C98.328,206.875 98.582,206.98 98.847,206.98C103.69,206.98 116.004,206.98 120.847,206.98C121.113,206.98 121.367,206.875 121.555,206.687C121.742,206.5 121.847,206.245 121.847,205.98L121.847,192.98ZM101.847,204.98L104.847,204.98C105.399,204.98 105.847,204.532 105.847,203.98C105.847,203.428 105.399,202.98 104.847,202.98L101.847,202.98C101.295,202.98 100.847,203.428 100.847,203.98C100.847,204.532 101.295,204.98 101.847,204.98ZM108.347,204.98L111.347,204.98C111.899,204.98 112.347,204.532 112.347,203.98C112.347,203.428 111.899,202.98 111.347,202.98L108.347,202.98C107.795,202.98 107.347,203.428 107.347,203.98C107.347,204.532 107.795,204.98 108.347,204.98ZM101.847,200.98L104.847,200.98C105.399,200.98 105.847,200.532 105.847,199.98C105.847,199.428 105.399,198.98 104.847,198.98L101.847,198.98C101.295,198.98 100.847,199.428 100.847,199.98C100.847,200.532 101.295,200.98 101.847,200.98ZM108.347,200.98L111.347,200.98C111.899,200.98 112.347,200.532 112.347,199.98C112.347,199.428 111.899,198.98 111.347,198.98L108.347,198.98C107.795,198.98 107.347,199.428 107.347,199.98C107.347,200.532 107.795,200.98 108.347,200.98ZM114.847,200.98L117.847,200.98C118.399,200.98 118.847,200.532 118.847,199.98C118.847,199.428 118.399,198.98 117.847,198.98L114.847,198.98C114.295,198.98 113.847,199.428 113.847,199.98C113.847,200.532 114.295,200.98 114.847,200.98ZM101.847,196.98L104.847,196.98C105.399,196.98 105.847,196.532 105.847,195.98C105.847,195.428 105.399,194.98 104.847,194.98L101.847,194.98C101.295,194.98 100.847,195.428 100.847,195.98C100.847,196.532 101.295,196.98 101.847,196.98ZM108.347,196.98L111.347,196.98C111.899,196.98 112.347,196.532 112.347,195.98C112.347,195.428 111.899,194.98 111.347,194.98L108.347,194.98C107.795,194.98 107.347,195.428 107.347,195.98C107.347,196.532 107.795,196.98 108.347,196.98ZM114.847,196.98L117.847,196.98C118.399,196.98 118.847,196.532 118.847,195.98C118.847,195.428 118.399,194.98 117.847,194.98L114.847,194.98C114.295,194.98 113.847,195.428 113.847,195.98C113.847,196.532 114.295,196.98 114.847,196.98ZM118.847,188.98L118.847,189.389C118.847,189.94 118.399,190.389 117.847,190.389C117.295,190.389 116.847,189.94 116.847,189.389L116.847,188.98L102.847,188.98L102.847,189.389C102.847,189.94 102.399,190.389 101.847,190.389C101.295,190.389 100.847,189.94 100.847,189.389L100.847,188.98L98.847,188.98C98.582,188.98 98.328,189.086 98.14,189.273C97.953,189.461 97.847,189.715 97.847,189.98L97.847,190.98L121.847,190.98L121.847,189.98C121.847,189.715 121.742,189.461 121.555,189.273C121.367,189.086 121.113,188.98 120.847,188.98L118.847,188.98Z" transform="translate(-93.847 -179.98)"></path></g></svg>